<svg xmlns="http://www.w3.org/2000/svg" width="760" height="760">
  <filter id="grain">
    <feTurbulence type="fractalNoise" baseFrequency="0.9" numOctaves="2" stitchTiles="stitch" result="speckle" seed="5" />
    <feColorMatrix in="speckle" type="matrix" values="0 0 0 0 0  0 0 0 0 0  0 0 0 0 0  0 0 0 0.045 0" />
  </filter>
  <rect width="100%" height="100%" filter="url(#grain)" />
  <g>
    <line x1="0" y1="-3.4" x2="0" y2="3.4" stroke="#3a3a3a" stroke-width="0.6" opacity="0.11" transform="translate(279.4 700.8) rotate(63.9)" />
    <line x1="0" y1="-2.8" x2="0" y2="2.8" stroke="#3a3a3a" stroke-width="0.6" opacity="0.09" transform="translate(528.3 692.2) rotate(134.6)" />
    <line x1="0" y1="-3.9" x2="0" y2="3.9" stroke="#3a3a3a" stroke-width="0.6" opacity="0.10" transform="translate(267.7 472.5) rotate(245.5)" />
    <line x1="0" y1="-2.6" x2="0" y2="2.6" stroke="#3a3a3a" stroke-width="0.6" opacity="0.09" transform="translate(424.9 58.1) rotate(346.0)" />
    <line x1="0" y1="-3.1" x2="0" y2="3.1" stroke="#3a3a3a" stroke-width="0.6" opacity="0.06" transform="translate(339.2 178.7) rotate(234.1)" />
    <line x1="0" y1="-4.0" x2="0" y2="4.0" stroke="#3a3a3a" stroke-width="0.6" opacity="0.07" transform="translate(147.6 189.2) rotate(161.7)" />
    <line x1="0" y1="-4.3" x2="0" y2="4.3" stroke="#3a3a3a" stroke-width="0.6" opacity="0.06" transform="translate(457.3 119.0) rotate(248.3)" />
    <line x1="0" y1="-4.4" x2="0" y2="4.4" stroke="#3a3a3a" stroke-width="0.6" opacity="0.12" transform="translate(472.0 143.5) rotate(235.2)" />
    <line x1="0" y1="-2.8" x2="0" y2="2.8" stroke="#3a3a3a" stroke-width="0.6" opacity="0.09" transform="translate(570.0 431.0) rotate(303.3)" />
  </g>
</svg>
