<svg xmlns="http://www.w3.org/2000/svg" width="760" height="760">
  <filter id="grain">
    <feTurbulence type="fractalNoise" baseFrequency="1.1" numOctaves="2" stitchTiles="stitch" result="speckle" seed="2" />
    <feColorMatrix in="speckle" type="matrix" values="0 0 0 0 0  0 0 0 0 0  0 0 0 0 0  0 0 0 0.05 0" />
  </filter>
  <rect width="100%" height="100%" filter="url(#grain)" />
  <g>
    <rect x="-1.3" y="-1.3" width="2.7" height="2.7" fill="#2a2a2a" opacity="0.13" transform="translate(652.5 376.2) rotate(0)" />
    <rect x="-1.8" y="-1.8" width="3.7" height="3.7" fill="#2a2a2a" opacity="0.15" transform="translate(199.2 661.9) rotate(45)" />
    <rect x="-2.3" y="-2.3" width="4.6" height="4.6" fill="#2a2a2a" opacity="0.08" transform="translate(0.6 724.4) rotate(0)" />
    <rect x="-1.4" y="-1.4" width="2.8" height="2.8" fill="#2a2a2a" opacity="0.10" transform="translate(37.2 63.7) rotate(45)" />
    <rect x="-1.4" y="-1.4" width="2.9" height="2.9" fill="#2a2a2a" opacity="0.14" transform="translate(468.9 566.4) rotate(45)" />
    <rect x="-1.7" y="-1.7" width="3.5" height="3.5" fill="#2a2a2a" opacity="0.10" transform="translate(215.4 451.7) rotate(45)" />
    <rect x="-1.8" y="-1.8" width="3.6" height="3.6" fill="#2a2a2a" opacity="0.14" transform="translate(321.6 571.7) rotate(45)" />
    <rect x="-1.4" y="-1.4" width="2.7" height="2.7" fill="#2a2a2a" opacity="0.10" transform="translate(739.4 518.8) rotate(45)" />
    <rect x="-2.1" y="-2.1" width="4.3" height="4.3" fill="#2a2a2a" opacity="0.13" transform="translate(141.6 529.3) rotate(45)" />
    <rect x="-1.7" y="-1.7" width="3.5" height="3.5" fill="#2a2a2a" opacity="0.08" transform="translate(496.7 273.9) rotate(0)" />
    <rect x="-1.9" y="-1.9" width="3.8" height="3.8" fill="#2a2a2a" opacity="0.12" transform="translate(662.6 39.0) rotate(0)" />
  </g>
</svg>
