<svg xmlns="http://www.w3.org/2000/svg" xml:space="preserve" viewBox="0 0 1122 1122"><path d="M727.599 254.946c-3.707 1.44-7.273 3.39-10.64 5.501-3.409 2.135-6.554 4.562-9.796 6.931-3.346 2.446-6.775 4.959-9.482 8.13-2.974 3.328-5.528 6.99-8.475 10.344-2.927 3.332-5.773 6.61-8.373 10.211-5.784 8.011-10.381 16.715-15.233 25.3a423 423 0 0 0-13.587 26.135c-4.403 9.232-9.086 18.422-13.15 27.807-4.269 9.86-9.704 19.061-15.143 28.323 1.156.175 1.413 1.469 1.688 2.414a433 433 0 0 0 11.342-20.383c2.66-5.086 4.657-10.501 7.203-15.652 7.598-15.384 15.059-30.819 23.755-45.624 3.948-6.723 7.617-13.786 12.083-20.178 2.304-3.298 4.598-6.617 7.143-9.738 2.583-3.169 5.568-5.998 8.183-9.146 2.154-2.592 4.121-5.324 6.445-7.773 2.495-2.629 5.541-4.787 8.396-7.001 5.894-4.572 11.743-9.099 17.898-13.326.53-.364 3.796-2.246 3.595-3.085-.192-.796-3.424.644-3.852.81"/><path d="M727.674 260.259a90 90 0 0 0-11.788 11.201c-3.617 4.12-7.141 7.971-9.778 12.819-5.496 10.107-11.411 19.994-15.733 30.696-2.335 5.782-4.351 11.678-6.718 17.455-2.382 5.811-4.844 11.587-7.248 17.388-4.995 12.054-10.835 23.423-17.057 34.863-6.449 11.855-16.307 22.653-27.41 30.342 1.591 1.41 3.466 1.13 4.951-.07 1.543-1.248 3.091-2.523 4.533-3.885 1.839-1.737 3.568-3.576 5.237-5.474 4.405-5.009 8.989-9.883 12.409-15.645 5.36-9.032 10.457-18.327 14.959-27.811a681 681 0 0 0 18.895-43.669c2.562-6.544 5.724-13.082 9.417-19.061 3.799-6.149 6.704-13.204 11.262-18.819 5.058-6.23 10.368-12.269 15.991-17.994.677-.69 6.874-6.215 6.252-7.009-.873-1.111-7.373 4.067-8.174 4.673m-183.567 106.32a128 128 0 0 1-2.738-6.643c-1.603-4.208-3.07-8.446-4.164-12.818-2.068-8.275-4.094-16.781-5.241-25.242-.555-4.091-.752-8.291-.866-12.413-.121-4.358.646-8.682.667-13.036.019-3.758-.281-7.551.359-11.274.665-3.88 1.564-7.725 2.299-11.594-.663.588-1.456.723-2.286.899-1.593.339-1.299-.27-1.736 1.147-.354 1.147-.226 1.69-.852 2.751-.303.512-.627.982-.802 1.731-.911 3.894-1.588 8.06-1.216 12.067.067.726.444 1.393.468 2.082.004.122-.362.192-.397.868-.107 2.079-.065 4.17-.193 6.258-.278 4.515-.174 8.901.104 13.413.313 5.122 1.25 10.104 2.393 15.095 1.187 5.181 2.112 10.401 3.56 15.524a150.5 150.5 0 0 0 10.741 27.478q.551-.797 1.128-1.577 1.08-.72.173-1.648c-.186-.993-.985-2.134-1.401-3.068m-14.076-91.869q-.123.362.464-.025zm204.392 92.635c-2.083 1.051-4.126 2.194-6.143 3.364 2.647 2.566 5.303-.896 6.143-3.364m4.285.314c1.43 1.966 2.49-1.174 1.072-.86 4.085-3.403-2.755-1.518-1.072.86m-97.776 150.869c2.435-.06 3.572.028 3.872 2.673 2.021-.415 5.366-.547 7.127-1.6.86-.514 1.526-1.427 2.471-1.948 1.431-.79 1.339-.744 1.752-2.299-4.634 1.084-9.27 2.172-13.967 2.955q-.626.111-1.255.219m-5.917 1.324a8 8 0 0 1 1.212-.523c-5.922.969-11.751 2.33-17.692 3.202.114.846.394 1.641.685 2.437.535 1.469.084.871 1.314 1.044 1.296.181 3.371-.557 4.64-.808 3.393-.672 6.737-1.6 10.143-2.208-1.391-.604-1.819-2.315-.302-3.144m-176.857-115.99c.229-.626.487-1.242.977-1.718-.42.408-.756 1.068-.977 1.718m207.486-129.001c.088-.107.081-.24 0 0M457.923 404.629c-.004.045.034.073.033.117.054-.243.096-.488.137-.669-.052.185-.156.381-.17.552"/><path d="M757.516 429.42c1.528-1.932 2.142-3.456-.49-1.762-2.901 1.868-5.511 4.237-8.147 6.452a711 711 0 0 1-18.023 14.634c-5.85 4.592-10.694 10.013-17.005 14.045-7.219 4.613-14.346 9.318-21.721 13.685-7.613 4.508-15.887 6.731-23.988 10.056-8.09 3.32-17.246 5.309-25.732 7.717-8.5 2.41-16.917 4.766-25.187 7.883-7.867 2.964-15.792 5.163-23.37 8.897-7.548 3.717-14.857 7.79-21.797 12.56-7.308 5.023-13.467 11.909-18.164 19.406 3.44-8.701 6.861-17.288 9.701-26.215 2.54-7.985 5.311-15.675 9.002-23.21 2.009-4.103 4.225-8.1 6.224-12.208q.751-1.542 1.466-3.102c.614-1.337.592-1.334 1.919-1.278 2.162.092 4.326.041 6.488.001 4.162-.077 8.305-.325 12.461-.538 3.945-.203 7.875-.103 11.773-.852 4.075-.782 7.994-2.053 12.114-2.637 4.738-.672 9.304-1.615 13.906-2.938 8.726-2.509 17.314-6.376 25.362-10.566 16.501-8.593 29.225-21.194 38.101-37.491 2.628-4.824 5.785-9.324 8.322-14.207 2.286-4.405 4.602-8.769 7.176-13.016 4.898-8.08 11.062-15.596 17.728-22.262-3.034-1.487-4.214 2.674-6.195 3.374-.507.179-.917-.26-1.412-.041-.364.162-.883 1.038-1.089 1.294a213 213 0 0 0-3.218 4.121c-4.151 5.424-7.769 10.92-11.021 16.932-3.364 6.221-6.318 12.568-9.978 18.635-2.694 4.466-4.85 9.207-7.93 13.433-7.863 10.788-18.18 19.301-30.029 25.373-12.292 6.299-25.522 11.51-39.287 13.202-6.804.836-13.242 2.936-20.122 3.219-7.09.29-14.263 1.122-21.253 2.349 4.091-1.294 7.951-3.066 11.963-4.562 3.823-1.426 7.662-2.544 11.549-3.769 7.919-2.498 16.169-4.942 23.755-8.325 13.628-6.077 27.905-11.361 40.17-20.061 6.7-4.751 14.093-9.995 19.456-16.238-2.013-.549-1.081.639-2.685 1.663-.667.427-1.068.184-1.793.42-.615.2-1.083.62-1.64 1.096-2.792 2.385-5.593 4.774-8.489 7.034-6.415 5.007-12.971 9.333-20.15 13.184-14.294 7.668-29.264 13.761-44.754 18.528 15.109-7.151 29.013-16.572 42.542-26.321 8.714-6.28 17.216-13.016 25.182-20.226 7.808-7.067 14.537-15.331 23.053-21.616 4.543-3.352 8.435-7.216 12.756-10.797 3.977-3.296 8.661-5.84 12.867-8.852-1.644-.339-1.504-1.252-2.866-1.967-1.117-.587-1.485.09-2.661.855-2.221 1.445-4.535 2.743-6.735 4.217-4.472 2.997-7.812 7.216-12.034 10.507-4.647 3.623-9.024 7.37-13.283 11.45-4.236 4.059-7.967 8.581-12.199 12.655-8.622 8.3-17.938 16.169-27.597 23.24-4.887 3.578-9.913 6.948-14.802 10.523-4.87 3.559-10.447 5.902-15.689 8.846-11.578 6.501-24.236 10.858-36.594 15.607q5.064-10.7 10.142-21.395a258 258 0 0 0 2.062-4.431c.298-.659.525-1.503.935-2.105.756-1.115.482-.316.909-.905.663-.913.899-2.081 1.609-2.856.571-.624 1.45-1.184 2.313-2.023 2.437-2.37 4.41-6.01 7.541-7.294 3.756-1.539 7.346-3.44 10.987-5.227 1.669-.82 3.354-1.609 5.013-2.45.258-.13 2.002-.857 2.103-1.11.119-.302-.63-2.17-.987-2.401-.874-.563-3.093 1.001-4.17 1.514-1.801.858-3.607 1.702-5.393 2.592 3.397-3.877 6.237-8.17 9.449-12.191a404 404 0 0 0 10.536-13.732c5.282-7.222 10.642-14.304 15.631-21.739 6.08-9.063 11.353-18.73 16.175-28.512 2.265-4.593 4.204-9.34 6.367-13.983 2.154-4.626 4.667-9.069 6.594-13.799 1.015-2.491 13.608-24.823 12.525-25.572-1.05-.729-12.404 19.893-13.315 21.963-4.064 9.223-8.204 18.416-12.283 27.642-4.452 10.069-9.792 19.938-15.59 29.289-5.803 9.359-12.53 18.005-19.273 26.689-3.768 4.854-7.821 9.513-11.442 14.474-1.684 2.307-3.371 4.616-5.03 6.94-.657.921-1.218 2.04-1.948 2.901-.862 1.017-2.059 1.456-3.294 2.067 5.071-5.913 9.271-12.372 13.366-18.98-.968.346-2.099.238-3.001.519-.592.184-.208-.152-.86.436-.503.452-1.051 1.632-1.412 2.178-1.904 2.887-3.885 5.779-6.055 8.473a197 197 0 0 1-4.468 5.357 108 108 0 0 0-2.684 3.256c-1.152 1.443-1.922 2.017-3.597 2.807 6.235-14.783 12.256-29.639 18.232-44.528 3.314-8.257 6.381-16.605 9.485-24.942 2.949-7.922 6.583-15.524 9.262-23.552a133 133 0 0 1 3.128-8.393 1009 1009 0 0 1 1.718-4.16l1.291-3.114c.744-1.794 1.215-2.068-.313-3.325q.633.532 1.236 1.096c3.534-8.514 7.137-17.003 10.753-25.483 1.696-3.979 3.477-7.917 5.235-11.867.748-1.678 2.4-4.115 2.597-5.903.055-.498.106-.688.149-.816-.08.098-.231.118-.587-.51-.579-1.023-1.2-1.675-1.325-2.93-13.637 32.455-26.127 65.323-39.339 97.929.537-2.318 1.517-4.94 1.718-7.228q-.324.037-.472-.412l.382-.586c.044-.169.561-.859.69-1.178.536-1.323.742-2.878 1.082-4.264 1.265-5.177 2.548-10.146 4.174-15.226 1.576-4.923 3.08-9.865 4.626-14.797.829-2.64 1.757-5.245 2.66-7.86.42-1.22.841-2.442 1.228-3.672.517-1.639 1.011-2.027-.305-3.032-2.731 9.508-6.237 18.888-9.378 28.276.701-4.388 1.675-8.739 2.561-13.092.735-3.608 1.472-7.217 2.219-10.822l.619-2.985.207-.995q.677-1.07-.423-1.534c-.282-1.943.82-2.068 1.527-3.711 1.36-3.162 1.608-7.405 2.375-10.761.873-3.826 1.77-7.644 2.778-11.438 2.02-7.606 4.182-15.164 6.543-22.67 2.209-7.022 4.147-14.045 6.881-20.891 2.593-6.49 5.614-12.653 9.092-18.706 3.335-5.806 6.088-12.015 9.741-17.628 3.828-5.883 8.451-11.324 12.645-16.954 4.039-5.421 8.223-10.741 12.063-16.308.344-.499 2.872-3.541 2.509-4.24-.398-.765-1.775.742-2.268 1.174-4.663 4.08-8.713 8.986-12.715 13.694-4.665 5.489-9.298 11.167-13.535 16.997-4.131 5.683-6.836 12.093-10.251 18.193-3.304 5.9-6.429 11.745-9.012 18.002-5.923 14.342-9.76 29.573-13.672 44.568-4.477 17.164-7.351 34.713-10.735 52.112-1.508 7.752-2.184 15.772-4.421 23.359-1.064 3.611-2.197 7.202-3.278 10.808-.506 1.689-1.084 3.413-1.39 5.153-.027.154-.409 2.328.252 1.355-1.575 6.336-3.164 13.036-5.834 19.013 2.937-10.266 3.802-20.692 3.89-31.318.091-10.937-.241-21.781-1.643-32.64-1.434-11.104-3.51-22.116-5.468-33.136-.899-5.055-2.382-9.981-3.08-15.074-.782-5.709-1.297-11.463-2.004-17.183-1.458-11.805-.937-23.292.163-35.091-1.095 1.035-.504-1.578-.504-2.402 0-.933-.059-1.884.003-2.814.073-1.121 1.022-5.917 1.925-5.737.631-3.585 1.425-7.076 1.8-10.676.109-1.047 1.082-5.163-.697-2.758-1.916 2.59-3.005 6.27-4.07 9.262-1.307 3.669-2.632 7.317-3.751 11.049-2.238 7.469-4.629 14.551-5.524 22.334-.893 7.761-2.904 15.299-3.734 23.074 2.159-.416 2.989 2.611 3.348 4.24.896-7.505 2.782-14.723 3.91-22.167.954-6.297 1.806-12.226 3.65-18.341-1.276 13.253.529 25.947 2.116 39.064 1.266 10.464 3.702 20.643 5.394 31.035 2.118 13.015 4.148 26.085 4.663 39.277.5 12.81.501 25.897-1.791 38.541-1.293 7.136-3.796 13.927-5.287 21.019-1.305 6.211-3.537 11.72-5.654 17.675 1.081-7.816 2.497-15.574 2.942-23.466-.208.206-1.049.288-.936-.194.084-.362.6-.559.684-.791.101-.277.246-.579.361-.977.5-1.729.27-4.079.394-5.894.257-3.733-.056-7.373-.127-11.101-.152-7.943-.826-15.84-1.491-23.754-.644-7.67-1.658-15.299-2.311-22.96-.339-3.983-.392-7.917-.498-11.906-.082-3.111-.605-6.214-.482-9.328.162-4.068.483-8.163.804-12.221.069-.877 1.184-8.972.372-9.17-1.576-.38-3.405 21.29-3.309 23.46.384 8.715.781 17.525 2.137 26.155 1.475 9.385 2.239 19.023 2.993 28.492.668 8.365 1.171 16.747.473 25.115-.435 5.224-.831 10.411-1.58 15.603-.421 2.919-1.058 5.801-1.476 8.72-.266 1.857-1.51 5.599-.081 6.907-.283.298-.922 1.421-1.329.574-.101-.213.435-1.388.495-1.336.191-4.211.616-8.406.805-12.616.089-1.997.565-4.779.08-6.706-.275-1.096-.389-.758-1.111-1.686-.519-.666-.472-1.681-.489-2.471.706.171 1.314.573 1.56 1.284-.143-8.364-1.063-16.645-1.629-24.983-.483-7.116-2.191-13.856-3.192-20.852-1.883-13.162-3.186-26.535-3.059-39.842.096-10.063.854-20.087 1.19-30.14-.459.434-1.147.613-1.762.647-.325.018-1.008-.328-1.271-.184-.756.416-.609 2.382-.62 3.103-.049 3.222-.243 6.433-.371 9.651a306 306 0 0 0-.189 18.314c.188 9.353 1.134 18.677 2.261 27.957.761 6.266 1.735 12.483 3.036 18.658 1.275 6.047 1.485 12.109 1.881 18.256.79 12.251 1.016 24.189 0 36.439-.279 3.37-.368 6.75-.534 10.127-.142 2.883.007 5.446-1.598 7.878-3.839 5.816-7.275 11.889-10.747 17.929.7-2.073.462-4.525.403-6.675a78 78 0 0 0-.798-9.107c-.923-6.387-1.414-12.816-2.556-19.171l-.368.305c1.079-.914-1.192-8.097-1.54-9.629-.751-3.306-1.737-6.553-2.441-9.87-.641-3.027-1.185-6.077-1.978-9.071-.833-3.144-2.109-6.129-3.047-9.237-3.51-11.636-6.761-23.435-9.929-35.17-1.748-6.476-3.38-13.054-5.505-19.42-2.208-6.614-4.562-13.162-6.183-19.962-.742-3.113-1.156-6.292-2.032-9.377-.818-2.884-2.001-5.643-2.877-8.509-1.777-5.811-2.408-12.064-3.86-17.986-.792-3.235-1.611-6.48-2.596-9.661-.187-.605-1.319-5.057-2.129-5.168-1.22-.168-3.461 6.62-3.713 7.34-1.177 3.372-2.237 6.769-3.119 10.232.685-.054 1.345-.143 2.03-.071.531.054.95.554 1.494.347.914-.346 1.074-3.212 1.305-4.289.584-2.731 1.098-5.475 1.677-8.208.432 5.33 1.317 10.658 2.34 15.904.958 4.901 1.427 9.817 3.114 14.548 3.764 10.552 5.657 21.633 9.723 32.11 4.318 11.123 7.318 22.801 10.881 34.187 1.815 5.8 3.633 11.596 5.362 17.423 1.611 5.436 3.689 10.843 5.005 16.349 3.145 13.158 5.612 26.452 6.917 39.915.843-.485 2.544-1.25 2.989.074.265.789-1.794 2.7-2.305 3.312-.915 1.095-.935 1.238-.515 2.572.394 1.251.902 2.53 1.18 3.813.639 2.948.64 6.065 1.143 9.045.051.303.684 4.427 1.604 3.671q-.496.864-.987 1.73c-.139-3.591-.933-7.218-1.965-10.647a107 107 0 0 0-1.664-5.092c-.266-.749-.444-2.07-.909-2.71-.43-.591-1.046-.513-1.382-1.347-.395-.981.307-.95.305-1.907-.001-.742-.627-1.798-.881-2.501-.652-1.807-1.409-3.55-2.213-5.292-1.766-3.823-3.625-7.614-5.704-11.277-4.049-7.13-7.739-14.64-12.29-21.459-3.348-5.015-6.099-10.191-8.863-15.549-.644.504-1.347.967-2.096 1.298 1.838 3.423 3.639 6.877 5.604 10.23 1.775 3.026 3.918 5.818 5.677 8.853 3.823 6.601 7.495 13.512 10.912 20.336 5.993 11.971 10.487 25.01 13.114 38.138-.142-1.819 2.083-2.497 2.314-.449.138 1.228-1.59 2.618-2.197 1 .341 1.555.318 1.824-.446 3.244a276 276 0 0 0-1.726 3.272q-1.721 3.313-3.444 6.624c-2.151 4.136-4.154 8.342-6.349 12.457-3.94 7.389-7.571 14.783-10.541 22.624-.094-5.295-.495-11.05-1.33-16.28-.503-3.14-1.722-6.022-2.573-9.063-.845-3.019-.964-6.184-1.741-9.218-1.712-6.671-4.261-12.898-6.42-19.404-2.239-6.743-4.567-13.47-7.283-20.038-.785.761-2.165 1.436-2.17 2.383-.005 1.074 1.034 2.773 1.393 3.783.754 2.12 1.129 5.928 3.072 7.061-1.289 1.302 1.655 7.742 2.235 9.573.946 2.982 2.18 5.729 3.612 8.503l-1.75-3.384c3.24 8.503 3.911 17.6 6.436 26.274 1.095 3.762 1.184 7.532 1.658 11.396.52 4.24 1.236 8.522 2.065 12.71-3.669-8.923-8.147-17.516-11.858-26.419-1.631-3.916-3.599-7.648-5.26-11.542a829 829 0 0 1-3.065-7.279l-1.73-4.162c-.203-.49-.403-1.455-.763-1.837-.642-.679-.525-.489-1.645-.216 3.344 7.706 7.255 15.255 10.37 23.04 3.071 7.675 6.252 15.491 9.728 22.987-3.374-4.773-6.187-9.88-9.391-14.767-3.176-4.844-6.699-9.545-9.568-14.576-2.693-4.721-5.86-9.144-8.526-13.855-2.046-3.617-3.72-7.451-6.207-10.787 1.273-.089-.281-1.984-.687-2.851q-.662-1.412-1.304-2.832a210 210 0 0 1-2.867-6.696c-1.664-4.043-3.073-8.179-4.411-12.341-2.546-7.912-5.286-15.773-6.728-23.978-.637-3.626-.551-7.311-1.112-10.947-.524-3.379-1.469-6.585-1.351-10.037.242-7.111.56-14.218.56-21.338 1.651 3.576 3.696 6.88 5.655 10.286 1.929 3.353 3.413 6.936 5.276 10.327.048-2.14 1.555-1.736 2.656-.317.882 1.137 1.624 2.391 1.859 3.833-.796-.015-1.602.174-2.344.449 7.944 14.509 15.698 28.988 21.829 44.376.461-.371 1.629-.779 1.953-1.227.462-.64.13-.861-.265-1.77l-.617-1.418c-.43-.978-.859-1.956-1.304-2.929-1.624-3.552-3.215-7.135-4.938-10.635-2.402-4.884-5.11-9.489-7.349-14.475-2.477-5.515-5.554-10.803-8.307-16.188-2.605-5.097-4.816-10.299-7.842-15.175-1.386-2.234-2.668-4.537-4.11-6.736-.422-.641-2.159-3.866-3.291-3.658-.957.176-.092 1.7-.123 2.16-.048.709-.65 1.615-.868 2.326-.807 2.646-1.255 5.427-1.624 8.165-.629 4.675-1.049 9.591-1.1 14.309-.057 5.258 1.699 10.425 2.149 15.665.47 5.477 1.705 11.096 3.461 16.307 3.772 11.191 7.604 22.405 12.785 33.039 5.195 10.662 11.584 20.497 17.345 30.816 2.912 5.214 6.357 10.17 9.489 15.255 2.946 4.784 5.493 9.738 8.798 14.296 1.71 2.356 3.294 4.806 5.05 7.128.247.327.968.964 1.077 1.365.216.794-.271 1.794-.539 2.67a440 440 0 0 1-1.689 5.409c-1.896 5.949-4.147 11.723-6.485 17.508-5.105 12.63-9.012 25.79-12.395 38.979-4.156-4.09-8.657-7.819-12.646-12.081q-.67 1.088-1.343 2.175c-.85-1.109-2.765-3.203-.06-3.698-7.389-8.109-14.805-16.499-19.473-26.504-3.993-8.56-7.639-17.197-10.555-26.18-6.887-21.204-9.677-43.374-15.235-64.928-1.396-5.411-3.754-10.34-5.773-15.519-2.173-5.576-4.479-10.998-7.165-16.351-.444.447-.99.795-1.648.69 2.917 6.614 5.417 13.388 8.32 20 .182-.274 1.109.348 1.244.488.892.933.07 1.744.14 2.671.11 1.478 1.426 3.503 1.896 4.979 1.384 4.353 2.477 8.834 3.558 13.27 2.254 9.246 4.105 18.553 6.036 27.868 3.952 19.068 10.425 37.608 18.853 55.154-4.689-7.298-9.764-14.401-13.64-22.167a252 252 0 0 1-10.85-25.078c-2.034-5.493-3.689-11.138-5.358-16.751-1.551-5.213-3.523-10.375-4.84-15.645-.677-2.706-1.338-5.417-2.004-8.125-.266-1.079-.292-2.666-.823-3.615-.74-1.325-1.219-1.171-.829-3 .928-4.355-1.877-10.343-3.045-14.702-.755-2.816-1.092-5.674-1.448-8.56a72 72 0 0 0-.675-4.515c-.149-.79-.208-3.374-.787-3.929-.18-.173-1.264-.197-1.59-.266-1.451-.308-1.404-.104-1.262-1.378.157-1.395 1.493-2.53 1.712-3.781.205-1.178-.828-3.602-1.132-4.756a90 90 0 0 0-1.15-4.08c1.084 1.647 2.249 3.234 3.392 4.842-.409-.395.548 2.426.574 2.493.486-.286.803-.48.457-1.036.188.268.297-.015.378-.379.001-.044-.036-.072-.033-.117.014-.171.118-.367.169-.552.012-.051.023-.127.035-.16.007-.02.023-.035.031-.054.221-.65.556-1.31.977-1.718-.49.476-.747 1.093-.977 1.718a4 4 0 0 0-.066.215c-.04.182-.083.426-.137.669-.039 1.25.836 2.105 1.611 3.197.633.893 1.253 2.136 2.048 2.885.693.653 1.685.801 2.635 1.047-1.037 1.356-1.092 1.124-.247 2.511.656 1.075 1.27 2.176 1.901 3.267 1.101 1.905 2.258 3.755 3.552 5.536 3.177 4.376 5.479 8.444 7.5 13.47 4.128 10.262 8.51 20.316 12.076 30.795 3.953 11.613 7.984 23.175 12.251 34.68 1.941 5.237 4.467 10.206 6.428 15.418 1.985 5.276 3.79 10.522 6.088 15.678 4.489 10.075 8.333 20.352 13.881 29.904.736 1.268 5.303 10.85 7.223 10.241 1.679-.533-2.707-8.238-3.184-9.193-2.475-4.952-5.384-9.618-7.567-14.723-2.14-5.008-4.542-9.903-6.804-14.859-2.413-5.289-4.766-10.479-6.742-15.951-1.654-4.577-4.05-8.822-5.699-13.396-7.681-21.301-13.561-43.168-21.905-64.22-1.924-4.857-3.502-10.115-6.169-14.62-2.499-4.222-5.51-8.126-8.037-12.35-2.668-4.461-6.065-8.558-9.56-12.394-.77-.844-6.599-7.822-8.017-6.938-.357.223-.227 3.031-.219 3.399.043 2.395.332 4.785.603 7.163.582 5.092 1.491 10.146 2.032 15.239.559 5.246 1.571 10.072 3.126 15.118 1.596 5.177 2.051 10.55 3.424 15.776 2.887 10.982 6.639 21.641 10.167 32.433 3.623 11.087 8.292 21.8 13.676 32.142 2.501 4.803 5.1 9.324 8.146 13.801 3.341 4.911 5.983 10.317 9.568 15.06 3.324 4.397 6.794 8.684 10.233 12.986 3.561 4.455 6.642 8.832 10.939 12.656 1.626 1.446 3.178 2.977 4.821 4.403.872.757 1.774 1.485 2.658 2.228.849.713 2.696 1.742 3.226 2.65.873 1.499-1.147 6.308-1.58 8.26-.691 3.115-1.266 6.245-1.814 9.388-2.039 11.704-4.737 23.278-6.798 34.977-1.042 5.915-2.079 11.829-2.998 17.764-3.197-6.563-5.999-13.292-9.21-19.847-3.424-6.995-7.43-13.676-10.881-20.648-1.608-3.25-3.104-6.542-5.031-9.622-.909-1.455-1.88-2.873-2.8-4.321-.398-.627-.754-1.606-1.281-2.092-.586-.541-.803-.2-1.648-.595-1.502-.703-1.435-2.836-1.66-4.223-.273-1.675-.915-2.755-1.786-4.313-1.004-1.797-1.988-3.604-3.01-5.39-.407-.712-.903-2.229-1.558-2.697-.795-.566-1.723.08-2.811.462 3.298 5.465 6.589 10.94 9.698 16.515 2.969 5.326 6.37 10.222 8.965 15.769-4.751-7.457-10.235-14.399-15.859-21.217a291 291 0 0 0-5.269-6.204c-.711-.814-1.442-1.934-2.305-2.597-.608-.467-1.315-.622-1.879-1.284-.367-.431-.011-.659-.22-1.015-.25-.425-.834-.918-1.187-1.304-.82-.893-1.769-2.281-2.77-2.979-.719-.501-1.658-.436-2.433-.958-.388-.261-.816-.517-.958-1.003-.106-.36.235-1.021.181-1.184-.672-2.027-3.804-4.526-5.365-6.296a185 185 0 0 1-5.53-6.558c-3.122-3.888-6.223-7.779-8.849-12.026-2.771-4.481-5.108-9.094-7.347-13.856-2.022-4.299-4.457-8.403-6.268-12.8-2.182-5.292-4.317-10.572-6.727-15.768-.446-.963-4.918-11.066-5.86-10.703-.464.179 10.069 26.185 11.301 28.891 2.619 5.749 5.599 11.523 8.548 17.115a103 103 0 0 0 11.168 16.897c9.207 11.329 19.737 21.402 29.208 32.487 8.998 10.533 16.971 21.622 23.935 33.601 3.847 6.619 6.922 13.703 9.807 20.784 1.388 3.406 2.984 6.682 4.654 9.956.656 1.289 1.99 3.086 2.184 4.537.219 1.641-.617 3.971-.858 5.62a278 278 0 0 0-11.913-21.856c-2.333-3.859-5.479-7.059-8.074-10.719-.914-1.289-.901-1.143-2.263-1.565-.588-.182-1.06-.525-1.46-.993-1.396-1.629-.212-1.338 1.21-1.354a178 178 0 0 0-14.855-20.759c-6-7.229-11.046-15.244-16.507-22.878-5.439-7.603-10.895-15.202-16.053-22.998-4.677-7.067-9.651-13.864-13.547-21.4-4.147-8.02-8.453-15.848-12.031-24.152-1.694-3.928-2.85-8.054-4.369-12.047-1.571-4.128-3.181-8.211-4.588-12.399-.447-1.328-1.675-7.608-3.332-8.139-1.647-.53-.487 4.257-.336 5.052 1.545 8.145 4.926 15.847 7.812 23.581 3.152 8.447 7.48 16.353 11.949 24.159 2.155 3.764 3.987 7.721 6.263 11.415 2.083 3.382 4.604 6.457 6.735 9.805 8.945 14.053 18.274 27.859 27.634 41.636 4.741 6.979 10.002 13.535 14.807 20.464 4.662 6.722 8.6 13.836 13.668 20.273 4.91 6.235 8.444 13.59 12.737 20.267 1.142 1.776 2.281 3.549 3.48 5.287.595.862 1.261 1.704 1.812 2.594.737 1.193.503 1.39.484 2.832-.003.293-.228.919-.124 1.187.063.159.703.168.823.433.222.485.401 1.029.104 1.538-.405.695-.925.498-1.255 1.176-.472.97-.308 2.952-.422 4.07-2.886 27.951-3.741 56.811-1.849 84.865.298 4.405.847 8.766 1.434 13.141-1.244-1.378-2.861-2.634-3.95-4.125-.697-.952-.899-2.094-1.424-3.243-1.814-3.969-4.2-7.762-6.556-11.427-5.279-8.211-10.177-16.612-15.318-24.908-4.875-7.868-9.849-15.623-14.357-23.709-3.448-6.186-7.605-11.913-11.033-18.114a1408 1408 0 0 1-16.51-30.761c-.389.544-.76 1.105-1.164 1.637-.717.941-.719.762-.375 1.831.627 1.953 2.148 3.934 3.144 5.74a998 998 0 0 0 6.412 11.423c4.268 7.505 8.448 15.042 13.212 22.245 4.602 6.959 8.158 14.572 12.562 21.666 4.077 6.57 8.062 13.258 11.761 20.048 4.223 7.752 9.148 15.149 14.255 22.349-2.04-1.879-4.525-3.585-5.952-5.955-1.445-2.402-2.821-4.841-4.31-7.219-3.314-5.293-6.913-10.424-10.319-15.662-3.455-5.312-7.108-10.51-10.782-15.671-1.87-2.628-3.773-5.231-5.584-7.901-.851-1.256-1.689-2.522-2.529-3.785-1.063-1.597-1.416-2.78-3.409-2.974 11.526 17.003 22.864 34.121 34.242 51.223-5.501-5.408-10.913-10.922-16.372-16.374-5.549-5.543-11.317-10.889-16.452-16.828-.005.098-.056.113-.065.201.001.048.063.13.045.167.001-.002-.096.035-.111.04-.144.749-.484 1.122-1.545.722.288-.296 1.37-.674 1.545-.722.015-.079.056-.116.066-.206-.007-.7-1.836-2.417-2.257-2.908-2.379-2.772-4.802-5.486-7.35-8.103-3.273-3.36-6.255-6.883-9.134-10.575-8.972-11.502-17.368-23.555-24.271-36.422-6.648-12.395-12.879-25.294-17.517-38.575-2.222-6.363-3.522-12.848-4.94-19.42-1.229-5.696-3.244-11.172-3.662-17.023a640 640 0 0 1-1.108-19.428c-.133-3.263-.158-6.53-.245-9.795-.041-1.566-.004-3.133-.045-4.7-.021-.81.244-3.592-.384-4.071-.611-.466-.415-.186-.839.549-.638 1.105-.736 2.885-.962 4.125-.603 3.319-.846 6.664-1.091 10.026-.484 6.658-.244 13.461.147 20.119.396 6.723 2.087 12.814 3.763 19.3 1.796 6.958 3.022 13.914 5.447 20.71 4.819 13.503 11.396 26.525 18.344 39.055 6.55 11.811 14.396 22.887 22.722 33.509 4.779 6.096 9.958 11.646 15.124 17.394 2.387 2.655 4.626 5.422 7.004 8.204q.787.92 1.587 1.83c1.184 1.341.97.517 2.393.739 1.192.187 1.988 1.95.676 2.633.409.433.839 1.043 1.326 1.385l.66.678q.433-.384.855-.148c.877.487.747 1.107 1.147 1.913.996 2.008 3.547 3.875 5.144 5.528 3.958 4.096 8.006 8.108 11.928 12.24 3.715 3.916 7.404 7.806 11.444 11.394 1.951 1.731 3.912 3.451 5.852 5.195.896.806 1.789 1.888 2.806 2.535-.004-.003 3.417 1.707 2.042 1.791 1.132.975 2.275 1.944 3.466 2.847 1.459 1.108 1.348 1.918 1.567 3.745.409 3.432.793 6.87 1.104 10.313.665 7.36 1.205 14.715 2.079 22.057 1.656 13.893 4.727 27.792 7.877 41.414-6.746-6.111-12.235-13.202-18.372-19.905-6.43-7.024-13.247-13.728-19.506-20.898-5.271-6.036-11.104-11.418-16.523-17.3-6.116-6.64-12.203-13.308-18.298-19.967-3.894-4.253-7.812-8.482-11.638-12.798-1.744-1.967-3.514-3.906-5.283-5.851-1.828-2.011-3.59-1.722-6.226-1.824 4.999 5.276 9.892 10.652 14.917 15.903-6.198-5.298-12.619-10.34-18.699-15.768-5.483-4.895-10.463-10.27-15.615-15.503-4.719-4.792-8.445-10.414-12.876-15.467-.932-1.061-11.477-12.211-12.576-10.91-.108.123 9.417 10.151 10.266 11.169 3.908 4.688 7.287 9.859 11.415 14.352 9.104 9.907 19.132 18.611 29.533 27.1 5.62 4.587 11.123 9.321 16.599 14.08 5.492 4.774 10.337 10.224 15.328 15.512 4.952 5.248 10.365 10.06 15.047 15.553 4.654 5.46 9.18 11.027 13.857 16.473 5.143 5.991 10.955 11.483 15.971 17.546 2.634 3.185 5.486 6.146 8.338 9.131 1.252 1.31 2.471 2.649 3.696 3.984 1.563 1.701 2.306 2.56 2.828 4.812-2.643-3.651-5.812-6.912-8.78-10.295-3.016-3.44-5.847-7.041-9.044-10.32-6.555-6.718-13.579-12.806-20.563-19.057-3.463-3.1-6.77-6.39-10.346-9.361-3.425-2.845-7.15-5.301-10.572-8.149-5.562-4.629-11.074-9.321-16.602-13.993.661 1.254.956 2.593 1.529 3.871.493 1.095 1.073 1.617 2.019 2.388 2.517 2.048 5.025 4.109 7.535 6.165 4.29 3.511 8.72 6.805 13.059 10.249 4.909 3.893 9.263 8.466 13.92 12.65 4.128 3.707 8.194 7.443 12.115 11.369a189 189 0 0 1 12.222 13.466c3.584 4.356 7.529 8.415 11.046 12.825 1.507 1.89 3.643 3.895 4.486 6.147 1.046 2.795 1.56 5.918 2.271 8.815 1.505 6.128 3.076 12.306 4.972 18.326 3.474 11.031 8.126 21.701 12.919 32.214 2.321 5.091 4.626 10.191 7.334 15.09.781 1.414 5.388 10.91 7.42 10.118 2.767-1.077-7.674-23.948-8.838-26.767-4.549-11.02-9.528-21.975-13.063-33.379-.961-3.1-2.44-6.636-2.819-9.853-.205-1.733-.362-.446.378-1.291.394-.45 1.614-.961 2.12-1.272 1.142-.703 2.272-1.427 3.407-2.141 4.944-3.111 9.741-6.443 14.737-9.471 5.018-3.043 9.17-6.839 13.739-10.476 4.396-3.5 9.357-6.284 13.859-9.664-1.286-.182-2.573-.385-3.829-.72-1.464-.391-1.776.033-3.023.856-2.176 1.436-4.441 2.733-6.609 4.183-4.097 2.74-7.552 6.281-11.586 9.096-8.197 5.722-16.567 10.914-24.152 17.499-5.248-18.601-10.05-37.308-13.907-56.253-.959-4.711-1.891-9.408-2.516-14.176a410 410 0 0 1-1.252-10.589c-.169-1.623-.496-1.864 1.041-2.408 8.122-2.877 15.793-6.893 23.795-10.062-1.462-.723-.504-1.989.089-3.051a5.7 5.7 0 0 1 1.262 2.512c6.127-2.467 11.385-6.377 17.348-9.125 6.554-3.022 13.057-6.001 19.501-9.266 6.791-3.442 13.371-7.289 20.158-10.758 6.891-3.523 13.703-7.126 20.264-11.238 6.556-4.109 12.765-8.736 18.812-13.556 5.87-4.678 10.963-10.062 16.582-15.005 5.761-5.068 11.004-10.468 16.294-16.015 5.436-5.7 11.045-11.42 16.076-17.481 4.387-5.287 8.69-11.065 12.234-16.956.499-.83 1.333-1.927 1.498-2.908.075-.449-.137-.977-.125-1.155.054-.839.833-1.046-.221-1.175-.794-.096-2.094.871-2.732 1.229-6.32 3.552-11.815 8.288-17.72 12.438-6.231 4.379-12.642 8.514-18.893 12.873-6.225 4.342-12.321 8.742-18.773 12.747-5.051 3.136-9.628 6.927-14.664 10.076a734 734 0 0 1-39.065 22.745c-14.605 7.923-29.079 16.481-42.925 25.682-3.194 2.123-5.913 4.749-8.709 7.349-2.88 2.678-6.039 5-8.966 7.617-5.085 4.548-9.48 10.003-12.998 15.815-1.144-11.637-3.231-23.219-3.771-34.905-.407-8.809-.541-17.683-.321-26.5.114-4.615.22-9.232.386-13.846.126-3.499 2.932-6.928 4.708-9.918 2.59-4.356 5.374-8.606 8.488-12.609 3.518-4.52 7.727-8.443 11.28-12.943 3.469-4.397 7.411-7.703 11.744-11.188-1.13-.434-1.907-1.239-2.932-1.779-.953-.503-.168-.476-1.217-.111-.515.179-1.22.923-1.676 1.275a47.5 47.5 0 0 0-5.145 4.557c-3.151 3.241-5.918 6.853-8.959 10.198-6.565 7.221-12.602 15.295-15.872 24.623.349-5.874.722-11.716 1.265-17.574.206-2.228.252-4.584.473-6.753.19-1.862.555-4.15.804-6.183.569-4.664 1.105-9.333 1.728-13.99 1.469 1.287.571-2.175.558-2.379-.112-1.741.444-3.669.744-5.416.667-3.881 1.305-7.768 2.021-11.64q1.139-6.168 2.35-12.323c.362-1.84.719-3.678 1.117-5.509.198-.914.404-1.826.606-2.738.327-1.48.334-1.508 1.448-2.322 2.735-1.997 6.775-3.167 9.868-4.545 3.148-1.406 6.271-2.861 9.504-4.067 3.111-1.16 6.247-2.188 9.28-3.546 1.747-.783 3.445-1.66 5.153-2.524a96 96 0 0 1 1.812-.907l-.267-.84c.09-1.059-.342-2.355-.326-3.464-5.628 2.503-11.143 4.918-16.877 7.18-6.415 2.531-12.604 5.927-18.401 9.644l1.01-4.56c.383-1.728.767-2.097 2.168-3.058 2.582-1.77 5.144-3.555 7.763-5.269 4.732-3.096 9.597-5.73 14.509-8.51 5.028-2.846 9.521-6.534 14.805-8.921 5.606-2.533 11.232-5.018 16.84-7.547 5.956-2.684 11.779-5.62 17.881-7.968 6.319-2.432 12.714-4.635 19.069-6.969 12.504-4.592 25.322-8.761 37.566-14.011 6.664-2.857 13.382-5.37 20.109-8.064 7.386-2.959 14.617-6.435 21.823-9.805-.658-1.038.31-2.069 1.196-2.523 1.547-.791 2.81.239 4.148.028 1.417-.222 3.159-1.428 4.437-2.064 1.665-.828 3.322-1.695 4.922-2.644-4.411 3.786-8.844 6.948-14.04 9.562-5.381 2.705-10.728 5.47-16.093 8.205-10.279 5.237-20.621 10.489-31.165 15.174-9.099 4.042-18.387 7.668-27.729 11.103-1.472.541-2.941 1.096-4.418 1.624-.983.352-2.05.996-2.824 1.328-.81.349-1.478.168-2.581.552q-2.223.777-4.445 1.561c-5.532 1.945-11.055 3.87-16.491 6.076-2.791 1.132-5.616 2.17-8.425 3.257-1.548.599-3.098 1.196-4.641 1.807-.697.276-1.39.556-2.088.828-.839.326-.855.52-1.283.983-.341.368-.187.923-.881 1.106-.762.2-.847-.665-1.352-.777-.889-.197-3.099 1.185-4.004 1.556-2.77 1.133-5.412 2.482-8.076 3.843.542.259 1.611.758 1.728 1.471 7.927-4.112 16.405-7.182 24.729-10.401 8.82-3.411 17.588-6.876 26.489-10.089 8.789-3.173 17.507-6.546 26.118-10.177 8.517-3.592 16.742-7.733 25.18-11.484 9.723-4.321 19.092-9.385 28.655-14.04-8.131 5.866-16.359 11.588-25.11 16.486-6.519 3.65-12.668 7.825-19.368 11.148-9.047 4.486-18.316 8.485-27.726 12.146-9.234 3.593-18.833 6.208-28.055 9.818-10.008 3.918-20.149 7.132-30.32 10.56.357.792 1.751 3.19 2.7 3.411.804.187 2.536-.795 3.361-1.052 2.727-.849 5.4-1.83 8.082-2.813 5.7-2.094 11.331-4.248 16.929-6.599 11.382-4.781 23.245-8.341 34.617-13.188 11.107-4.734 22.348-9.95 32.543-16.435 4.73-3.008 9.73-5.468 14.555-8.309 5.169-3.042 10.099-6.517 15.099-9.824 5.816-3.846 11.766-7.659 17.333-11.852 2.621-1.974 4.988-3.913 7.813-5.59.398-.237 4.18-2.19 3.926-2.826-.165-.411-2.773.906-2.83.931 2.948-2.563 6.243-5.088 8.636-8.209.669-.871 4.458-4.045 3.036-4.583-.658-.248-2.398.899-2.911 1.165-1.988 1.025-3.896 2.213-5.825 3.344-3.904 2.29-7.644 4.866-11.582 7.093-8.205 4.64-16.963 8.48-25.473 12.524-8.491 4.036-17.374 7.005-25.877 10.971-7.749 3.614-15.966 6.191-24.036 8.977.074.165.02.357.062.536.185.276.214.651.122 1.062-.01.056-.038.092-.052.147-.148.499-.432.991-.907 1.242.509-.269.776-.736.907-1.242.015-.05.041-.097.052-.147.064-.352-.041-.707-.122-1.062-.122-.182-.281-.336-.538-.372-.697-.098-2.17.75-2.851.985l-3.315 1.144c-4.379 1.512-8.747 3.065-13.147 4.516-8.149 2.686-16.486 5.248-24.323 8.769-7.206 3.24-14.395 6.598-21.725 9.553-3.835 1.546-7.639 3.072-11.199 5.195-2.972 1.775-5.758 3.817-8.778 5.513-7.808 4.387-15.252 8.818-21.938 14.867 2.202-10.288 4.152-20.504 6.977-30.653 2.348-8.436 4.951-16.876 7.983-25.115.037-.511.354-1.281.726-2.06.289-.757.511-1.544.809-2.296q.07.217.298.198a29 29 0 0 0-1.107 2.098c-.259.679-.475 1.377-.726 2.06-.025.353.067.583.398.538 1.195-.164 3.576-3.867 4.378-4.674 4.992-5.023 11.207-8.781 17.81-11.303 3.32-1.268 6.798-2.064 10.217-3.013 3.693-1.025 7.265-2.42 10.943-3.496 6.764-1.977 14.087-2.398 21.031-3.555-.273-.854-.476-2.209-.971-2.945-.579-.859.135-.452-.966-.631-.552-.089-1.559.236-2.138.326-2.41.373-4.822.701-7.247.97-5.181.573-10.079 1.535-15.045 3.118-9.349 2.98-18.722 4.881-26.928 10.592 17.23-16.399 40.242-24.162 63.168-28.55 12.658-2.422 25.458-3.395 37.865-7.08 9.617-2.857 18.964-6.855 27.591-11.98 12.363-7.344 23.711-15.65 34.847-24.73-5.641 6.061-11.212 12.051-17.338 17.63-4.737 4.316-8.968 9.18-14.006 13.155-10.524 8.301-22.144 13.85-34.872 17.805.603.6.592 1.828 1.217 2.344.631.522 1.049.095 1.967-.21 2.225-.74 4.404-1.556 6.588-2.411a99 99 0 0 0 7.758-3.442c7.875-3.89 15.391-9.024 21.925-14.896 3.29-2.956 6.231-6.274 9.51-9.245 3.447-3.125 6.98-6.141 10.251-9.453 6.05-6.125 11.897-12.453 17.838-18.684 3.438-3.604 6.977-7.091 10.102-10.978.468-.582 6.831-6.745 6.355-7.4q-.57.004-.979.46c1.107-1.443 2.238-2.866 3.316-4.332 1.458-1.97 3.249-4.105 4.188-6.398.761-1.896-.106-1.92-1.626-.519M526.153 793.366c1.543-2.057 3.27-4.433 5.377-5.841 2.065-1.38 4.169-2.713 6.235-4.096a234 234 0 0 1 6.62-4.257c.771-.479 3.215-1.503 3.702-2.268.501-.789-.493-1.182 1.096-1.953 1.082-.524 2.202-.139 3.276-.55 1.221-.467 2.441-1.296 3.587-1.918 2.374-1.285 4.68-2.68 6.979-4.093 4.986-3.07 10.266-5.466 15.441-8.185-1.098.089-1.933.213-2.311-1.003-4.036 2.032-8.172 3.817-12.076 6.106-3.299 1.934-6.536 3.932-9.916 5.728-7.329 3.894-14.539 8.513-20.758 14.037 4.12-4.23 8.712-7.757 13.077-11.709a131 131 0 0 0 3.233-3.052c1.004-.971 2.666-2.068 3.458-3.192 1.043-1.477-.151-.218.299-1.408.175-.462-.109-.598.295-1.071.465-.545 1.022-.321 1.611-.392 1.245-.151.203.508 1.633.006 2.534-.889 5.402-3.329 7.645-4.814 2.723-1.805 5.774-3.424 8.341-5.429 1.778-1.389 3.802-2.37 5.941-3.821 2.833-1.922 5.64-3.818 8.608-5.528 12.182-7.022 24.403-13.897 36.325-21.363 11.469-7.184 22.54-14.886 33.996-22.067 6.681-4.189 13.101-8.844 19.654-13.234 6.29-4.214 12.719-8.095 18.714-12.739-5.039 4.314-9.76 8.987-14.846 13.242-5.43 4.542-10.872 9.071-16.311 13.603-9.133 7.608-18.65 14.999-28.456 21.726 2.895-.361 5.903-2.656 8.226-4.469 2.947-2.299 5.863-4.618 8.885-6.82 6.221-4.536 12.206-9.355 18.156-14.239 5.747-4.716 11.612-9.306 17.044-14.386 2.678-2.505 5.392-4.983 7.985-7.576.886-.885 1.904-1.786 2.648-2.804.104-.142 1.253-1.571.2-1.014 1.678-1.261 3.355-2.524 4.986-3.847-4.898 5.766-9.075 12.114-14.114 17.753-5.289 5.922-10.559 11.857-15.868 17.762-4.931 5.485-10.183 10.365-15.587 15.368-3.88 3.592-7.444 7.416-11.575 10.733-12.62 10.131-26.239 18.222-40.76 25.302-6.912 3.37-13.631 7.105-20.535 10.469-6.558 3.195-13.19 6.066-19.844 9.034-3.74 1.668-7.147 3.883-10.722 5.857-3.354 1.852-6.967 3.106-10.461 4.651-7.336 3.244-14.704 7.093-21.393 11.526-.132-1.412 1.365-2.704 2.26-3.765m-10.431-89.029c.407-2.658 4.41-1.563 3.869.808-.572 2.505-4.277 1.851-3.869-.808m10.179-68.312c.213-.344.558-.646.824-.954.167.316.331.808.39 1.16-.39-.066-.842-.078-1.214-.206m6.569-31.417q.514.407 1.026.815c-1.986 1.114-2.235-.609-1.026-.815m9.511-37.318c.89 1.018 1.353 2.327 1.427 3.666-2.4-.891-2.698-1.393-1.427-3.666m4.567-8.147c-.953 1.961-6.187.89-5.769-1.443.464-2.596 7.113-1.334 5.769 1.443m1.894-10.145c-2.014.14-3.24-2.769-.878-3.088 2.003-.27 3.215 2.923.878 3.088m194.506-107.833-1.291-.576c.601-.216 1.02.003 1.291.576m-4.466 10.507c-4.471 4.789-9.185 9-14.184 13.231-15.812 13.2-32.672 26.056-52.157 33.327-21.139 7.888-43.95 8.101-65.619 14.001-6.415 1.747-12.951 3.544-18.94 6.469-5.387 2.632-10.799 5.628-15.795 8.944 10.506-8.26 23.317-15.463 35.961-19.828 6.412-2.214 12.774-4.853 19.272-6.778 4.658-1.38 9.374-2.585 14.072-3.817 14.138-3.709 28.455-7.238 42.085-12.585 12.374-4.854 23.866-12.557 34.977-19.78 5.711-3.712 10.191-8.795 15.581-12.901 6.047-4.607 11.659-9.589 16.999-15.006-4.146 4.867-7.883 10.044-12.252 14.723"/><path d="M465.864 723.695c.018-.037-.044-.119-.045-.167-.01.09-.051.127-.066.206.015-.004.112-.041.111-.039m84.489-171.284c.251-.682.467-1.38.726-2.06-.373.779-.689 1.549-.726 2.06m92.924 6.806c-.131.506-.399.973-.907 1.242.475-.251.758-.743.907-1.242m-.07-1.209c.081.355.187.71.122 1.062.092-.411.063-.786-.122-1.062m-193.336-32.275c-2.459-3.668-4.492-7.616-7.108-11.18-2.296-3.128-5.116-5.826-7.35-8.998-5.248-7.449-10.289-14.765-16.698-21.316-1.131-1.158-2.541-3.016-4.042-3.726-.807-.383-.928-.676-1.003.211-.094 1.114 1.69 3.207 2.237 4.05 1.491 2.294 3.116 4.5 4.705 6.726 2.316 3.314 4.762 6.55 7.005 9.913 2.157 3.232 4.065 6.538 6.602 9.504 2.688 3.144 5.379 6.08 7.613 9.576 2.257 3.535 4.542 7.021 6.949 10.457 4.957 7.075 10.177 13.906 14.789 21.215 2.431 3.851 4.749 7.762 7.141 11.636 1.201 1.945 2.441 3.863 3.637 5.81.612.995 1.207 2.578 2.048 3.379q.276 1.34 1.482.699 1-.119 2.005-.182c-4.895-8.54-9.858-17.045-14.939-25.475-4.624-7.674-10.083-14.853-15.073-22.299m134.904 120.198c-5.67 2.997-10.812 6.496-16.089 10.11-2.587 1.773-5.175 3.537-7.727 5.365-1.006.72-2.692 1.589-3.419 2.59-.663.912-.655.796-.083 1.999.342.721.828 1.38 1.278 2.032 6.366-5.092 12.992-10.087 19.807-14.564 7.253-4.767 15.168-8.379 22.881-12.305 7.428-3.529 14.886-6.98 22.436-10.243-.563-.723-1.019-1.454-.775-2.399-12.98 5.276-25.917 10.864-38.309 17.415m128.266-61.069c-1.08.624-2.136 1.286-3.204 1.929-.395.238-1.058.519-1.42.842l-.746.448q.183.367-.091.619c-.697.415-1.364.368-2.156.758-1.307.643-2.533 1.586-3.767 2.361 1.744 1.011-.208 2.979-1.609 2.882-.616-.043-1.147-.425-1.294-1.043-6.028 3.796-12.657 6.627-19.02 9.808-6.295 3.147-12.659 6.302-19.104 9.127-6.763 2.966-13.608 5.537-20.275 8.735-4.418 2.119-9.048 3.822-13.579 5.676.728.208 1.259-.368 2.026-.313.933.065 1.212.925 1.916 1.083 1.513.343 4.87-1.846 6.354-2.463 4.306-1.79 8.374-4.089 12.69-5.85 8.281-3.377 16.488-6.704 24.651-10.371 8.173-3.671 16.669-7.197 24.408-11.728 3.782-2.215 7.42-4.723 11.042-7.187a68 68 0 0 0 4.897-3.635c.77-.633 2.638-1.801 2.916-2.846.579-2.172-3.952.772-4.635 1.168m-123.183 93.39c-.714-.02-1.917.723-2.592.968-2.205.803-4.421 1.578-6.608 2.43-4.31 1.679-8.51 3.627-12.794 5.372-8.234 3.354-16.777 6.351-24.764 10.257-3.522 1.723-6.953 3.657-10.399 5.526-2.568 1.391-6.907 3.07-8.663 5.544-1.269 1.786.986 1.041 2.112.641 3.559-1.263 7.003-3.065 10.377-4.745 8.737-4.352 17.564-8.22 26.504-12.14-1.112-.695-.047-2.105.389-2.886a5.8 5.8 0 0 1 1.18 2.202 1226 1226 0 0 1 27.056-11.366c-.57-.727-1.008-1.782-1.798-1.803m127.838-92.543c-4.149 5.42-7.757 11.196-12.285 16.338 1.936.14 3.099 1.715 1.303 3.066-.596.449-1.404.616-2.139.666-.609.043-1.701-.52-2.118-.419-.538.132-1.915 1.958-2.335 2.356-.765.725-1.539 1.44-2.292 2.179a100 100 0 0 0-4.366 4.584c-3.202 3.579-6.167 7.113-10.021 10.035-3.546 2.689-7.019 5.462-10.526 8.2-7.524 5.878-15.106 11.57-23.317 16.453-8.163 4.855-16.645 9.244-25.198 13.366a513 513 0 0 1-14.922 6.873c-2.469 1.094-4.971 2.113-7.438 3.213-1.108.493-2.462.931-3.46 1.635-1.237.873-1.047 1.574-1.331 3.24 8.172-4.097 16.743-7.34 25.09-11.06 10.563-4.709 20.991-9.833 31.006-15.624 9.679-5.598 18.47-12.567 27.393-19.276 4.557-3.425 9.126-6.627 12.964-10.89 3.492-3.878 7.211-7.456 10.798-11.234 4.169-4.391 7.87-9.555 10.836-14.828 1.351-2.402 2.586-4.829 3.562-7.412.164-.436 1.242-2.79.842-3.117-.648-.53-1.69 1.192-2.046 1.656m-277.45 57.08c.015.081-2.5-.498-2.962-.987-.802-.847-.392-1.852-.305-2.895.362-4.297-3.29-8.636-5.271-12.293-4.559-8.409-7.787-17.395-12.064-25.909-1.882-3.745-4.258-7.226-6.013-11.037-1.899-4.124-3.392-8.409-5.365-12.504-1.861-3.862-3.72-7.734-5.742-11.513a130 130 0 0 0-3.141-5.582c-.618-1.03-1.329-2.668-2.3-3.431-.7-.55-.689-.776-.915.071-.284 1.067.817 3.243 1.15 4.22 1.711 5.006 3.772 9.939 5.872 14.792 2.712 6.283 4.883 12.892 8.199 18.889 1.755 3.173 3.783 6.19 5.336 9.473 1.542 3.265 2.786 6.663 4.377 9.906 3.523 7.178 7.362 14.124 11.325 21.062 3.948 6.91 7.38 14.148 11.047 21.211.386-.499 2.192-1.823 2.276-2.331.126-.757-1.598-3.266-1.919-3.916-1.19-2.412-2.39-4.818-3.585-7.226m11.614 146.565c-8.126-6.896-16.071-13.961-23.82-21.277-7.235-6.829-14.76-13.496-21.516-20.797-2.941-3.177-5.957-6.331-8.585-9.778-2.833-3.72-5.48-7.56-8.559-11.088-2.454-2.811-4.998-5.647-6.971-8.826-2.565-4.133-4.894-8.42-7.38-12.6-2.369-3.983-4.467-8.117-6.737-12.154-.594-1.056-4.278-9.248-5.374-8.974-2.171.54 6.991 19.982 7.893 21.756 3.95 7.771 8.174 15.346 13.967 21.901 6.196 7.01 11.562 14.61 18.062 21.372 7.592 7.898 15.887 15.162 24.004 22.521 8.422 7.636 17.069 14.964 25.893 22.133-.411-1.183-1.455-2.948-.877-4.189m-54.325-75.604c-6.071-5.365-11.117-11.849-16.955-17.487-3.051-2.946-6.165-5.808-9.426-8.52-.583-.484-4.676-4.479-5.659-3.963-1.008.529 12.281 15.113 13.582 16.51 3.977 4.239 7.648 8.789 11.714 12.936 4.17 4.253 8.958 7.765 12.938 12.222 4.117 4.613 8.349 9.058 12.677 13.472 4.689 4.782 9.713 9.207 14.317 14.068.074-.268.292-2.319.389-2.39.664-.476 2.436.58 2.949.945-5.984-6.552-12.474-12.632-18.589-19.069-5.995-6.31-11.395-12.946-17.937-18.724m313.579 30.127c-6.45 3.152-12.493 7.025-18.928 10.207-6.833 3.378-13.547 7.098-20.11 10.974-6.693 3.953-13.868 7.197-20.366 11.452a282 282 0 0 1-12.424 7.676c-14.014 8.177-27.935 16.79-40.949 26.499-5.787 4.317-10.968 9.32-16.335 14.138-4.992 4.479-10.482 8.939-14.832 14.039-2.226 2.609-4.05 5.517-6.169 8.206-2.016 2.56-4.284 4.906-6.277 7.484-.332.43-1.106 1.198-1.295 1.739-.33.945.208 1.268-.5 2.131-.468.57-1.05.423-1.491.841-.599.569-1.113 1.713-1.549 2.416a84 84 0 0 0-4.979 9.223c-.474 1.031-3.673 7.107-2.723 8.057.779.779 3.79-4.385 4.207-5.026 3.861-5.956 7.692-12.049 12.274-17.489 1.77-2.102 3.625-4.12 5.314-6.288 2.51-3.219 4.578-6.807 7.361-9.807 4.526-4.879 9.646-9.409 14.518-13.944 5.573-5.188 10.996-10.357 17.065-14.977 6.258-4.763 12.786-9.207 19.331-13.564 7.506-4.997 15.119-9.821 22.888-14.4 3.612-2.128 6.975-4.655 10.609-6.74 3.493-2.005 7.185-3.644 10.741-5.532 14.674-7.793 29.495-15.35 43.885-23.64-3.96 3.432-7.797 6.78-12.004 9.917-4.331 3.229-8.789 6.276-13.099 9.535-8.751 6.616-17.717 13.151-26.12 20.199-15.839 13.287-32.471 25.144-50.138 35.873-5.381 3.268-10.639 6.762-15.961 10.13-4.962 3.14-10.139 6.102-14.742 9.761 1.049.093 2.105.565 3.044.258.728-.238 1.597-1.139 2.259-1.584 2.105-1.417 4.264-2.751 6.387-4.142 3.757-2.458 7.548-4.862 11.311-7.31 7.968-5.185 16.095-10.136 24.009-15.404 15.68-10.439 29.581-23.235 44.69-34.424 8.228-6.094 16.238-12.444 24.654-18.288-6.563 5.53-12.904 11.355-19.14 17.25-6.468 6.114-13.497 11.592-20.032 17.644-4.763 4.41-10.047 8.322-15.139 12.333-7.498 5.906-15.066 11.708-22.801 17.298-8.188 5.917-15.992 12.319-24.158 18.24.971.234 3.008 1.808 3.855 1.793.854-.014 2.792-2.18 3.365-2.659 2.33-1.947 4.571-3.993 6.983-5.841 2.295-1.758 4.609-3.493 6.913-5.24q1.972-1.497 3.948-2.992c1.164-.88 3.395-2.115 3.988-3.29.474-.936.1-1.938 1.2-2.7 1.178-.815 1.916.109 2.843-.116 1.116-.273 2.809-2.236 3.674-2.924 1.256-1 2.511-2 3.758-3.009 5.212-4.21 10.369-8.487 15.526-12.763 4.717-3.912 9.073-8.155 13.69-12.167 4.642-4.035 9.634-7.617 14.193-11.756 9.215-8.367 19.279-15.888 28.074-24.691 3.979-3.981 8.515-7.793 11.684-12.47.166-.244.154-.703.295-.888.198-.259 1.343-.878 1.39-1.311.075-.707.223-.537-.492-.761-1.673-.524-5.861 2.184-7.173 2.824m-129.503 86.011-.36-.512.617-.04zm118.858-422.711c-3.024 3.888-6.473 7.341-9.615 11.12 1.043.138 1.692.056 2.727.064 3.013-3.405 6.003-6.594 8.596-10.352.565-.82 5.891-8.725 4.975-9.325-.498-.327-6.074 7.709-6.683 8.493M540.05 320.935c.021-.294-.016-.143 0 0"/><path d="M578.851 422.601c-.852-2.88-1.821-5.722-2.793-8.562-1.986-5.804-4.243-11.502-6.335-17.266-3.613-9.953-8.026-19.656-12.165-29.405-5.081-11.972-9.596-23.976-13.333-36.435-3.333-11.112-4.128-22.435-5.341-33.906-.327-3.091.179-33.48-1.496-33.609-.519-.041-.679 6.082-.694 6.431.898-.716-.088 1.753-.056 1.473-.117 1.013-.062 2.085-.09 3.104a260 260 0 0 0-.107 6.726c-.007 3.98-.176 7.984.008 11.961l.501-.425c0 4.97.557 9.759.947 14.705.184 2.328.404 4.645.755 6.953.091.605.179 3.28.611 3.675.475.434 1.811-.226 2.067 1.017.2.963-.661 1.112-1.028 1.737-.195.333-.24.271-.252.16-.01.135-.023.3-.088.732-.063.42.341 1.613.411 1.935.49 2.249 1.112 4.46 1.791 6.659 1.475 4.787 2.938 9.572 4.64 14.286 6.848 18.955 16.048 36.95 22.935 55.893 3.568 9.819 6.588 19.705 9.663 29.681.983-.966 1.111-.523 1.117-1.791.003-.402-.37-1.257-.464-1.584-.402-1.381-.797-2.766-1.204-4.145m-53.856 12.357c-1.746-4.311-2.888-8.761-4.448-13.124-1.457-4.076-2.435-7.943-3.325-12.188-.193-.925-1.734-11.84-2.5-11.834-1.349.016.522 12.356.697 13.364.907 5.24 2.817 9.857 4.322 14.92 1.635 5.5 4.183 10.571 6.412 15.832a594 594 0 0 1 3.186 7.659c.552 1.357 1.101 2.714 1.682 4.059.192.448.362 1.179.672 1.55.779.931.43.754 1.752.431a392 392 0 0 1-3-7.549c-1.747-4.407-3.673-8.731-5.45-13.12m-67.363-29.068c.635 1.991 1.127 3.721 3.086 4.781-.96-1.776-1.922-3.555-2.976-5.278zm101.104 194.865a127 127 0 0 0-11.934 7.161c-.679.46-8.758 5.879-8.297 6.642.25.411 12.479-7.197 13.552-7.8 2.936-1.652 5.882-3.266 8.912-4.74 1.538-.747 3.093-1.456 4.64-2.181.666-.312 1.788-.595 2.298-1.114.64-.653.399-1.47.151-2.462-3.066 1.585-6.254 2.912-9.322 4.494m32.816 63.087c-.805.214-1.76.814-2.516 1.169a238 238 0 0 1-4.682 2.153 476 476 0 0 0-9.286 4.237c-6.138 2.879-12.104 5.646-17.901 9.181-5.415 3.302-11.01 6.166-16.171 9.884-1.237.892-14.057 10.195-13.192 11.39.179.248 13.54-9.283 14.869-10.173 5.235-3.505 10.841-6.358 16.194-9.67.806-.499 1.762-.938 2.484-1.542.43-.359.656-.779.96-1.045 1.163-1.023 2.144-1.001 3.506-1.503 3.249-1.197 6.446-3.024 9.574-4.517 1.365-.651 18.049-8.445 17.998-8.548-.642-1.258-.608-1.344-1.837-1.016m116.023-68.419c-.958.419-1.924 1.852-2.635 2.6-1.365 1.435-2.719 2.877-4.104 4.292-11.552 11.804-25.057 22.202-39.61 30.084-6.38 3.456-12.676 7.091-19.247 10.175-9.215 4.326-18.606 8.236-28.016 12.11-5.511 2.183-11.019 4.373-16.502 6.626q.363.775.616 1.594c16.086-6.808 32.361-13.203 48.007-21.006 15.273-7.617 29.735-16.482 43.319-26.808 6.248-4.75 12.071-10.61 16.867-16.825.412-.534 1.907-1.978 1.849-2.696-.049-.627.102-.428-.544-.146m-274.408 58.735c-4.84-8.706-9.715-17.414-13.873-26.472-2.099-4.573-3.794-9.296-5.771-13.922-1.644-3.851-3.442-7.611-4.711-11.612a842 842 0 0 1-4.954-16.167c-.338-1.145-3.405-14.067-4.299-13.972-1.078.117 4.19 20.652 4.722 22.432.997 3.341 1.871 6.719 3.03 10.011 1.483 4.215 3.56 8.182 5.232 12.316 3.139 7.763 6.502 15.401 10.534 22.751 2.168 3.95 4.407 7.864 6.604 11.797a521 521 0 0 0 3.434 6.041 1093 1093 0 0 0 1.918 3.311c.651 1.117.847 2.524 2.126 2.013.528 1.87.912 3.134 1.967 4.824 1.229 1.968 2.451 3.939 3.694 5.897a598 598 0 0 0 7.922 12.133c2.462 3.685 4.895 7.4 7.436 11.031 1.173 1.679 2.401 3.317 3.613 4.968.566.773 1.134 1.545 1.686 2.328.89 1.266 1.033 1.415 2.548 1.656-.653-.965-1.31-1.927-1.992-2.873-11.336-15.434-21.561-31.759-30.866-48.491m152.262 100.931-.012 1.45c8.55-4.536 16.957-9.463 25.295-14.378 4.172-2.461 8.268-5.049 12.334-7.681 2.115-1.369 4.204-2.775 6.294-4.18q1.571-1.056 3.129-2.129c1.28-.883 1.372-.914 1.377-2.44-15.945 10.791-32.679 20.561-49.78 29.404q.68-.015 1.363-.046m-9.174 89.561c-2.083 1.748-4.132 3.531-6.245 5.243-.99.802-2.183 1.556-3.038 2.495-.58.637-.681 1.198-1.271 1.868q-.139.252-.351-.45a78.3 78.3 0 0 0-10.39 11.406c-.425.572-5.798 7.853-5.027 8.431.097.073 10.512-12.129 11.481-13.125 5.086-5.228 10.861-9.717 16.406-14.441-.771-.172-1.52-.529-1.565-1.427m122.656-664.612c-1.299 5.936-3.092 11.818-5.177 17.524-1.888 5.169-4.457 10.053-6.3 15.244-2.065 5.811-3.971 11.478-6.661 17.042 2.769-.57 2.2.823 3.052 2.947 2.837-5.655 5.088-11.38 7.166-17.348 1.89-5.431 4.636-10.509 6.482-15.953 2.014-5.942 3.64-12.161 4.346-18.402.093-.816 1.291-11.769-.272-11.863-.995-.081-2.463 10.021-2.636 10.809m-21.168 56.373c-4.418 10.586-8.281 21.377-12.721 31.943 1.38-.519 2.767-.277 3.72-1.666.386-.563.951-.85 1.318-1.382.313-.456.529-1.211.736-1.708a121 121 0 0 0 1.518-3.905c1.006-2.685 1.975-5.383 3.094-8.022 1.169-2.759 2.378-5.5 3.566-8.25.345-.798 1.89-3.21 1.758-4.073-.145-.962-2.293-2.346-2.989-2.937m.426-27.381a134 134 0 0 0-9.164 18.333c-2.942 7.179-6.096 14.182-8.488 21.584-1.284 3.968-2.474 7.956-3.823 11.903q-1.14 3.345-2.286 6.689c-.315.919-.156 1.341-.276 1.944-.169.855.322 1.676-1.049 1.893-3.999 11.546-7.899 23.175-11.5 34.851 1.572-.033 1.411-.66 1.876-2.055q.534-1.603 1.076-3.202a3561 3561 0 0 1 4.627-13.591c3.037-8.867 6.188-17.69 9.316-26.525 2.888-8.156 5.277-16.501 8.725-24.454 3.204-7.386 6.161-14.926 10.206-21.896 1.102-1.9 12.59-20.198 11.834-20.825-.819-.699-10.339 14.124-11.074 15.351"/></svg>